<?xml version="1.0" standalone="no"?>
<!DOCTYPE svg PUBLIC "-//W3C//DTD SVG 20010904//EN"
 "http://www.w3.org/TR/2001/REC-SVG-20010904/DTD/svg10.dtd">
<svg version="1.0" xmlns="http://www.w3.org/2000/svg"
 width="188.000000pt" height="189.000000pt" viewBox="0 0 188.000000 189.000000"
 preserveAspectRatio="xMidYMid meet">
<g transform="translate(0.000000,189.000000) scale(0.100000,-0.100000)"
fill="#000000" stroke="none">
<path d="M470 1320 l0 -430 -130 0 -130 0 0 -155 0 -155 65 0 65 0 0 85 0 85
65 0 65 0 0 -107 0 -108 87 -87 88 -88 153 0 152 0 -2 -107 -3 -108 178 -3
178 -2 -3 67 -3 68 -107 3 -108 3 0 39 0 40 238 2 237 3 3 565 2 565 -127 127
-128 128 -417 0 -418 0 0 -430z m913 262 l127 -127 -2 -525 -3 -525 -405 -1
-405 -1 -92 90 -93 91 0 563 0 563 373 0 372 0 128 -128z"/>
<path d="M690 1210 l0 -370 260 0 260 0 0 370 0 370 -260 0 -260 0 0 -370z
m475 0 l0 -325 -215 0 -215 0 -3 328 -2 327 217 -2 218 -3 0 -325z"/>
<path d="M950 645 l0 -25 173 2 c164 3 172 4 172 23 0 19 -8 20 -172 23 l-173
2 0 -25z"/>
</g>
</svg>
