<?xml version="1.0" encoding="UTF-8"?>
<svg fill="#FFFFFF" width="100pt" height="100pt" version="1.1" viewBox="0 0 100 100" xmlns="http://www.w3.org/2000/svg">
 <g fill-rule="evenodd">
  <path d="m24.102 60.508c-8.9727 0-16.273 7.3398-16.273 16.348 0 9.0078 7.3008 16.344 16.273 16.344 9.0078 0 16.312-7.3398 16.312-16.344 0-9.0078-7.3047-16.348-16.312-16.348zm0 2c7.9258 0 14.312 6.4141 14.312 14.344 0 7.9297-6.3867 14.348-14.312 14.348-7.8828 0-14.273-6.418-14.273-14.348 0-7.9297 6.3906-14.344 14.273-14.344z"/>
  <path d="m76.789 15.238l-9.75 8.7812c-0.39453 0.35156-0.42969 1.0273-0.078124 1.4219 0.35156 0.39453 1.0273 0.42969 1.4219 0.078125l8.5625-7.75c1.1445 8.1133-0.019531 13.395-2.5 17.094-2.6602 3.9688-6.9492 6.2578-11.969 8.0625-5.0195 1.8047-10.727 3.1016-16 5.25-5.2734 2.1484-10.16 5.1797-13.344 10.469-0.26953 0.44922-0.10547 1.1055 0.34375 1.375 0.44922 0.26953 1.1055 0.10547 1.375-0.34375 2.8906-4.8086 7.3125-7.5938 12.375-9.6562s10.723-3.3555 15.906-5.2188c5.1836-1.8633 9.9531-4.3164 12.969-8.8125 2.6641-3.9727 3.8555-9.4492 2.9688-17.188l7.6562 8.1562c0.31641 0.49219 1.0977 0.58984 1.5234 0.19141 0.42578-0.39844 0.38281-1.1836-0.085938-1.5352l-9.625-10.281c-0.66797-0.69922-1.0352-0.67969-1.75-0.09375z"/>
  <path d="m68.383 67.207c-0.39062 0.039063-0.72266 0.30078-0.84766 0.66797-0.12891 0.37109-0.027344 0.78125 0.25391 1.0508l11.156 11.188-11.156 11.219c-0.22266 0.17969-0.35547 0.44141-0.37109 0.72656s0.089843 0.55859 0.28906 0.76172c0.20312 0.19922 0.48047 0.30469 0.76172 0.28906 0.28516-0.015625 0.54688-0.14844 0.72656-0.37109l11.156-11.188 11.125 11.188c0.38672 0.39844 1.0234 0.40625 1.4219 0.015625 0.39844-0.38672 0.40234-1.0234 0.015624-1.4219l-11.156-11.219 11.156-11.188c0.30078-0.28906 0.39063-0.73438 0.22266-1.1211-0.16797-0.38281-0.55469-0.62109-0.97266-0.59766-0.26172 0.011719-0.50781 0.125-0.6875 0.3125l-11.125 11.188-11.156-11.188c-0.1875-0.19531-0.44531-0.30859-0.71875-0.3125h-0.09375z"/>
  <path d="m7.6016 6.8008c-0.375 0.070313-0.67578 0.33984-0.78125 0.70703-0.10547 0.36328 0.003907 0.75391 0.28125 1.0117l11.125 11.188-11.125 11.188c-0.19141 0.1875-0.30078 0.44141-0.30078 0.70703-0.003906 0.26953 0.097657 0.52344 0.28516 0.71484s0.44141 0.30078 0.70703 0.30469c0.26562 0 0.52344-0.10156 0.71484-0.28906l11.156-11.188 11.125 11.188c0.39844 0.39062 1.0352 0.38281 1.4219-0.015625 0.38672-0.39453 0.38281-1.0312-0.015626-1.4219l-11.125-11.188 11.125-11.188c0.29688-0.28516 0.38672-0.72266 0.22656-1.1055-0.15625-0.37891-0.53516-0.62109-0.94531-0.61328-0.25781 0.003907-0.50391 0.10547-0.6875 0.28125l-11.125 11.188-11.156-11.188c-0.19141-0.18359-0.45312-0.28516-0.71875-0.28125-0.0625-0.003906-0.125-0.003906-0.1875 0z"/>
 </g>
</svg>
